M48
; DRILL file {KiCad 8.0.7} date 2025-01-13T21:04:35-0800
; FORMAT={-:-/ absolute / metric / decimal}
; #@! TF.CreationDate,2025-01-13T21:04:35-08:00
; #@! TF.GenerationSoftware,Kicad,Pcbnew,8.0.7
; #@! TF.FileFunction,Plated,1,4,PTH
FMAT,2
METRIC
; #@! TA.AperFunction,Plated,PTH,ViaDrill
T1C0.300
; #@! TA.AperFunction,Plated,PTH,ComponentDrill
T2C0.700
; #@! TA.AperFunction,Plated,PTH,ComponentDrill
T3C0.750
; #@! TA.AperFunction,Plated,PTH,ComponentDrill
T4C0.800
; #@! TA.AperFunction,Plated,PTH,ComponentDrill
T5C0.900
; #@! TA.AperFunction,Plated,PTH,ComponentDrill
T6C1.000
; #@! TA.AperFunction,Plated,PTH,ComponentDrill
T7C1.100
; #@! TA.AperFunction,Plated,PTH,ComponentDrill
T8C1.400
; #@! TA.AperFunction,Plated,PTH,ComponentDrill
T9C1.500
; #@! TA.AperFunction,Plated,PTH,ComponentDrill
T10C2.300
; #@! TA.AperFunction,Plated,PTH,ComponentDrill
T11C2.400
; #@! TA.AperFunction,Plated,PTH,ComponentDrill
T12C2.500
; #@! TA.AperFunction,Plated,PTH,ComponentDrill
T13C2.600
; #@! TA.AperFunction,Plated,PTH,ComponentDrill
T14C3.000
%
G90
G05
T1
X288.7Y-228.8
X288.7Y-233.8
X288.7Y-238.3
X288.7Y-243.3
X290.7Y-231.3
X290.7Y-236.3
X290.7Y-240.8
X290.7Y-245.8
X292.7Y-228.8
X292.7Y-233.8
X292.7Y-238.3
X292.7Y-243.3
X296.0Y-128.5
X296.0Y-133.5
X296.0Y-138.0
X298.0Y-131.0
X298.0Y-136.0
X300.0Y-128.5
X300.0Y-133.5
X300.0Y-138.0
X311.8Y-234.3
X311.8Y-238.8
X311.8Y-243.8
X313.8Y-236.8
X313.8Y-241.3
X315.8Y-234.3
X315.8Y-238.8
X315.8Y-243.8
X325.0Y-128.5
X325.0Y-133.5
X325.0Y-138.0
X327.0Y-131.0
X327.0Y-136.0
X329.0Y-128.5
X329.0Y-133.5
X329.0Y-138.0
X335.1Y-148.0
X335.1Y-152.0
X340.5Y-126.6
X340.5Y-131.6
X340.5Y-136.1
X340.5Y-141.1
X340.9Y-235.3
X340.9Y-239.8
X340.9Y-244.8
X341.0Y-199.0
X341.0Y-200.5
X341.0Y-202.0
X342.5Y-129.1
X342.5Y-134.1
X342.5Y-138.6
X342.5Y-143.6
X342.9Y-237.8
X342.9Y-242.3
X344.5Y-126.6
X344.5Y-131.6
X344.5Y-136.1
X344.5Y-141.1
X344.9Y-230.3
X344.9Y-235.3
X344.9Y-239.8
X344.9Y-244.8
X348.5Y-182.6
X351.0Y-180.6
X351.0Y-184.6
X370.0Y-232.0
X370.0Y-237.0
X370.0Y-241.5
X372.0Y-234.5
X372.0Y-239.5
X374.0Y-237.0
X374.0Y-241.5
X382.5Y-237.5
X382.5Y-242.5
X384.5Y-240.0
X384.5Y-245.0
X386.5Y-237.5
X386.5Y-242.5
X393.0Y-240.1
X393.0Y-244.1
X395.5Y-242.1
X396.4Y-182.6
X398.0Y-240.1
X398.0Y-244.1
X398.9Y-180.6
X398.9Y-184.6
X400.1Y-162.0
X400.1Y-167.0
X400.5Y-242.1
X401.4Y-182.6
X402.5Y-240.1
X402.5Y-244.1
X402.9Y-126.3
X402.9Y-131.3
X402.9Y-135.8
X402.9Y-140.8
X404.1Y-162.0
X404.1Y-167.0
X404.9Y-128.8
X404.9Y-133.8
X404.9Y-138.3
X405.0Y-242.1
X406.0Y-175.3
X406.0Y-180.3
X406.9Y-126.3
X406.9Y-131.3
X406.9Y-135.8
X406.9Y-140.8
X407.5Y-240.1
X407.5Y-244.1
X408.0Y-172.8
X408.0Y-177.8
X410.0Y-175.3
X410.0Y-180.3
X410.0Y-242.1
X414.2Y-240.3
X414.2Y-244.3
X416.7Y-242.3
X419.2Y-240.3
X419.2Y-244.3
X421.7Y-242.3
X423.7Y-240.3
X423.7Y-244.3
X426.2Y-242.3
X428.7Y-240.3
X428.7Y-244.3
X431.2Y-242.3
X432.7Y-240.3
X432.7Y-244.3
X434.5Y-189.0
X435.2Y-242.3
X436.75Y-187.5
X437.7Y-240.3
X437.7Y-244.3
X440.2Y-242.3
X441.2Y-123.5
X441.2Y-128.5
X441.2Y-133.0
X441.2Y-138.0
X442.2Y-240.3
X442.2Y-244.3
X443.2Y-126.0
X443.2Y-131.0
X443.2Y-135.5
X443.2Y-140.5
X444.0Y-168.7
X444.0Y-173.7
X444.0Y-178.2
X444.0Y-183.2
X444.4Y-150.9
X444.4Y-155.9
X444.4Y-160.4
X444.4Y-165.4
X444.7Y-242.3
X445.2Y-123.5
X445.2Y-128.5
X445.2Y-133.0
X445.2Y-138.0
X446.0Y-171.2
X446.0Y-176.2
X446.0Y-180.7
X446.0Y-185.7
X446.4Y-148.4
X446.4Y-153.4
X446.4Y-157.9
X446.4Y-162.9
X447.2Y-240.3
X447.2Y-244.3
X448.0Y-168.7
X448.0Y-173.7
X448.0Y-178.2
X448.0Y-183.2
T2
X300.5Y-170.755
X300.5Y-172.655
X304.5Y-170.755
X304.5Y-172.655
X364.75Y-173.75
X366.65Y-173.75
X401.5Y-174.0
X401.5Y-175.9
X404.75Y-189.5
X405.005Y-184.75
X406.65Y-189.5
X406.905Y-184.75
X429.25Y-151.0
X431.75Y-151.0
X434.25Y-151.0
X436.75Y-151.0
T3
X288.64Y-171.23
X288.64Y-172.5
X288.64Y-173.77
X372.345Y-142.16
X373.615Y-142.16
X374.885Y-142.16
T4
X290.83Y-149.86
X294.5Y-170.92
X294.5Y-181.08
X297.75Y-170.92
X297.75Y-181.08
X300.99Y-149.86
X306.84Y-191.0
X306.92Y-195.0
X307.0Y-199.0
X308.65Y-156.21
X308.65Y-165.1
X308.65Y-173.99
X308.65Y-182.88
X313.65Y-156.21
X313.65Y-165.1
X313.65Y-173.99
X313.65Y-182.88
X317.0Y-191.0
X317.08Y-195.0
X317.16Y-199.0
X318.77Y-149.86
X321.31Y-175.26
X321.31Y-185.42
X323.84Y-203.15
X323.84Y-207.15
X323.92Y-199.0
X326.39Y-170.18
X326.39Y-180.34
X327.66Y-157.48
X328.93Y-149.86
X331.47Y-167.64
X331.47Y-177.8
X334.0Y-203.15
X334.0Y-207.15
X334.08Y-199.0
X337.82Y-157.48
X347.98Y-161.29
X347.98Y-163.83
X347.98Y-166.37
X347.98Y-168.91
X347.98Y-171.45
X347.98Y-173.99
X347.98Y-176.53
X348.09Y-147.24
X348.09Y-152.24
X349.205Y-134.175
X351.705Y-134.175
X353.06Y-147.24
X353.06Y-152.32
X353.75Y-187.42
X353.75Y-197.58
X355.6Y-161.29
X355.6Y-163.83
X355.6Y-166.37
X355.6Y-168.91
X355.6Y-171.45
X355.6Y-173.99
X355.6Y-176.53
X356.825Y-134.62
X357.825Y-188.985
X357.825Y-193.985
X361.825Y-134.62
X361.99Y-169.0
X362.5Y-184.17
X362.5Y-194.33
X363.22Y-147.24
X363.22Y-152.32
X366.99Y-169.0
X367.275Y-184.135
X367.275Y-194.295
X368.3Y-147.32
X368.3Y-152.32
X378.46Y-147.24
X378.46Y-152.24
X384.0Y-178.92
X384.0Y-189.08
X386.08Y-172.72
X387.35Y-161.33
X387.35Y-166.33
X388.15Y-178.955
X388.15Y-189.115
X390.34Y-150.54
X390.34Y-155.54
X391.2Y-177.8
X392.0Y-137.67
X392.0Y-147.83
X393.45Y-158.92
X393.45Y-169.08
X395.5Y-186.75
X395.69Y-150.5
X395.69Y-154.0
X396.2Y-177.8
X396.24Y-172.72
X397.0Y-158.92
X397.0Y-169.08
X400.5Y-186.75
X403.31Y-150.5
X403.31Y-154.0
X407.5Y-154.42
X407.5Y-164.58
X408.0Y-168.0
X412.58Y-154.42
X412.58Y-164.58
X413.0Y-168.0
X415.5Y-182.75
X415.5Y-187.75
X417.66Y-153.15
X417.7Y-160.77
X417.92Y-175.75
X418.5Y-166.75
X418.5Y-171.75
X420.18Y-179.93
X420.18Y-182.47
X420.18Y-185.01
X420.18Y-187.55
X422.66Y-153.15
X422.7Y-160.77
X424.25Y-166.75
X424.25Y-171.75
X427.8Y-179.93
X427.8Y-182.47
X427.8Y-185.01
X427.8Y-187.55
X428.08Y-175.75
X430.92Y-181.75
X431.0Y-177.25
X436.0Y-177.25
X441.0Y-212.5
X441.0Y-217.5
X441.08Y-181.75
X447.0Y-212.5
X447.0Y-217.5
T5
X289.225Y-184.0
X289.46Y-192.0
X289.46Y-200.0
X289.46Y-208.0
X289.46Y-216.0
X289.46Y-224.0
X291.765Y-184.0
X292.0Y-192.0
X292.0Y-200.0
X292.0Y-208.0
X292.0Y-216.0
X292.0Y-224.0
T6
X292.975Y-164.625
X292.975Y-167.125
X295.475Y-164.625
X295.475Y-167.125
X297.75Y-244.0
X297.975Y-164.625
X297.975Y-167.125
X300.25Y-244.0
X302.75Y-244.0
X312.55Y-226.65
X315.05Y-226.65
X317.55Y-226.65
X323.6Y-243.925
X326.1Y-243.925
X328.6Y-243.925
X334.72Y-226.725
X337.22Y-226.725
X339.72Y-226.725
X348.99Y-244.0
X351.49Y-244.0
X353.99Y-244.0
X360.48Y-226.675
X362.98Y-226.675
X365.48Y-226.675
X382.915Y-161.33
X382.915Y-163.83
X382.915Y-166.33
T7
X349.205Y-127.0
X359.365Y-127.0
X399.425Y-193.04
X399.425Y-208.28
X401.965Y-193.04
X401.965Y-208.28
X404.505Y-193.04
X404.505Y-208.28
X407.045Y-193.04
X407.045Y-208.28
X409.585Y-193.04
X409.585Y-208.28
X412.125Y-193.04
X412.125Y-208.28
X414.665Y-193.04
X414.665Y-208.28
X417.205Y-193.04
X417.205Y-208.28
X419.745Y-193.04
X419.745Y-208.28
X422.285Y-193.04
X422.285Y-208.28
X424.825Y-193.04
X424.825Y-208.28
X427.365Y-193.04
X427.365Y-208.28
X429.905Y-193.04
X429.905Y-208.28
X432.445Y-193.04
X432.445Y-208.28
X434.985Y-193.04
X434.985Y-208.28
X437.525Y-193.04
X437.525Y-208.28
X440.065Y-193.04
X440.065Y-208.28
X442.605Y-193.04
X442.605Y-208.28
X445.145Y-193.04
X445.145Y-208.28
X447.685Y-193.04
X447.685Y-208.28
T8
X290.385Y-127.0
X290.385Y-139.7
X306.615Y-127.0
X306.615Y-139.7
X319.05Y-127.0
X319.05Y-139.7
X335.28Y-127.0
X335.28Y-139.7
X396.385Y-126.275
X396.385Y-138.975
X412.615Y-126.275
X412.615Y-138.975
X418.605Y-126.315
X418.605Y-139.015
X434.835Y-126.315
X434.835Y-139.015
T9
X375.01Y-228.49
X381.36Y-225.95
X395.21Y-228.77
X401.56Y-226.23
X415.41Y-228.6
X421.76Y-226.06
X435.61Y-228.6
X441.96Y-226.06
T10
X373.38Y-127.275
T11
X373.25Y-187.45
X373.25Y-192.15
T12
X368.88Y-126.275
X377.88Y-126.275
T13
X373.25Y-182.75
X378.05Y-182.75
X378.05Y-187.45
X378.05Y-192.15
T14
X373.38Y-133.275
T7
X290.725Y-157.475G85X290.725Y-156.775
G05
X295.45Y-236.85G85X295.45Y-236.15
G05
X300.225Y-157.475G85X300.225Y-156.775
G05
X305.05Y-236.85G85X305.05Y-236.15
G05
X310.25Y-219.5G85X310.25Y-218.8
G05
X319.85Y-219.5G85X319.85Y-218.8
G05
X321.3Y-236.775G85X321.3Y-236.075
G05
X330.9Y-236.775G85X330.9Y-236.075
G05
X332.42Y-219.575G85X332.42Y-218.875
G05
X342.02Y-219.575G85X342.02Y-218.875
G05
X346.69Y-236.85G85X346.69Y-236.15
G05
X356.29Y-236.85G85X356.29Y-236.15
G05
X358.18Y-219.525G85X358.18Y-218.825
G05
X367.78Y-219.525G85X367.78Y-218.825
G05
X375.765Y-159.03G85X375.065Y-159.03
G05
X375.765Y-168.63G85X375.065Y-168.63
G05
M30
